<svg width="45" height="45" viewBox="0 0 45 45" fill="none"
    xmlns="http://www.w3.org/2000/svg">
    <path d="M4.36741 40.3827L0.129292 16.1051C0.0883689 15.8707 0.062859 15.634 0.0529291 15.3962C-0.0100553 12.6438 1.94876 10.2662 4.64231 9.8257L12.8207 8.36951L12.5993 40.3827H4.36741Z" fill="#35495E"/>
    <path d="M35.8445 39.3194C35.7027 39.9135 35.2264 40.3669 34.6304 40.4751L10.5609 44.759C9.04382 45.0262 7.48613 44.6213 6.28584 43.6477C5.08554 42.6742 4.3589 41.2262 4.29157 39.6739C4.23142 37.0423 6.02711 34.7363 8.5755 34.1727L15.3183 36.0834H15.3107L9.23985 37.1698C8.56278 37.2899 7.97473 37.7099 7.63749 38.3143C7.30025 38.9188 7.24935 39.6439 7.49879 40.2902C7.93071 41.3313 9.02769 41.9233 10.1257 41.7079L28.5214 38.4334L35.8445 39.3194Z" fill="#2C3E50"/>
    <path d="M15.3107 36.0834L9.23987 37.1698C8.56279 37.2899 7.97474 37.7099 7.6375 38.3143C7.30026 38.9187 7.24936 39.6439 7.4988 40.2902C7.93072 41.3313 9.0277 41.9233 10.1257 41.7079L28.5214 38.4334L15.3107 36.0834Z" fill="#F9EAB0"/>
    <path d="M9.79425 25.7136L14.0377 1.43284C14.1896 0.598228 14.9778 0.0415127 15.807 0.183133L39.6909 4.4323C42.3864 4.87314 44.3467 7.25224 44.2841 10.0067C44.2737 10.2433 44.2482 10.4791 44.2077 10.7124L39.9643 34.9932L9.79425 25.7136Z" fill="#E64C3C"/>
    <path d="M34.6975 8.2262C34.6527 8.22618 34.608 8.22231 34.5639 8.21464L17.267 5.13736C16.8767 5.04023 16.6279 4.65437 16.698 4.25494C16.7681 3.85552 17.1331 3.57935 17.5328 3.62338L34.8289 6.69681C35.219 6.76575 35.4921 7.12415 35.4579 7.52224C35.4237 7.92032 35.0936 8.22598 34.6975 8.2262Z" fill="#3F5C6C"/>
    <path d="M31.026 11.4822C30.9812 11.4823 30.9365 11.4782 30.8924 11.4699L19.6122 9.46592C19.2063 9.38287 18.94 8.98858 19.0119 8.57709C19.0838 8.16561 19.4676 7.88692 19.8771 7.94886L31.1582 9.95209C31.5505 10.019 31.8262 10.3787 31.7917 10.7787C31.7571 11.1786 31.424 11.4848 31.026 11.4822Z" fill="#3F5C6C"/>
    <path d="M32.6203 14.9235L16.8247 12.1082C16.4093 12.0341 16.0131 12.3139 15.9397 12.733L14.611 20.3222C14.5376 20.7413 14.8149 21.1411 15.2303 21.2152L31.0259 24.0305C31.4413 24.1045 31.8375 23.8248 31.9109 23.4056L33.2396 15.8165C33.313 15.3973 33.0357 14.9975 32.6203 14.9235Z" fill="#ECF0F1"/>
    <path d="M44.2826 10.0029C44.2735 10.2407 44.248 10.4775 44.2062 10.7117L39.9605 34.9894L34.0729 33.1788L37.4863 13.655L38.2958 9.04752L39.1205 4.33221L39.6932 4.43238C42.3855 4.87505 44.3432 7.25128 44.2826 10.0029Z" fill="#C03A2B"/>
    <path d="M35.4474 28.71L11.5613 24.4647C11.473 24.4494 11.3836 24.4416 11.294 24.4416C10.5025 24.4436 9.84372 25.0554 9.77618 25.851C9.70865 26.6467 10.2548 27.3626 11.0344 27.5004L35.0962 31.7765C35.7726 31.9001 36.3589 32.3225 36.6944 32.9279C37.0299 33.5333 37.0795 34.2584 36.8296 34.9046C36.4 35.9433 35.3047 36.533 34.2104 36.3146L10.2402 32.0539C10.1519 32.0385 10.0625 32.0308 9.97292 32.0308C9.17998 32.0288 8.51744 32.6394 8.44781 33.4364C8.37817 34.2333 8.9246 34.9515 9.70565 35.0895L33.7751 39.3657C35.2911 39.6338 36.8481 39.2303 38.0484 38.2582C39.2487 37.2862 39.976 35.8396 40.0444 34.2882C40.1044 31.5326 38.1436 29.1534 35.4474 28.71Z" fill="#802F34"/>
    <path d="M36.8296 34.9046C36.4 35.9433 35.3047 36.533 34.2103 36.3146L10.2402 32.0539L11.0343 27.5004L35.0962 31.7765C35.7726 31.9001 36.3589 32.3224 36.6944 32.9279C37.0299 33.5333 37.0795 34.2584 36.8296 34.9046Z" fill="#F9EAB0"/>
</svg>
